# xmcd
#
# Track frame offsets:
# 150
# 16051
# 27174
# 48014
# 64942
# 67704
# 87485
# 102207
# 122736
# 153129
# 158263
# 176459
# 196356
# 205083
# 222282
# 226825
# 231919
# 235816
# 245718
# 260276
# 268155
# 294724
# 316151
#
# Disc length: 4521 seconds
#
# Revision: 0
# Processed by: cddbd v1.5PL3 Copyright (c) Steve Scherf et al.
# Submitted via: Axialis_AX_CDPlayer 2.6
#
DISCID=2d11a717
DTITLE=Various Artist - Furry Lewis, Bukka White and Friends: Party! at Home
DYEAR=1900
DGENRE=
TTITLE0=Bukka White - Hello Central, Give Me 49
TTITLE1=Bukka White - Grey-Haired Woman
TTITLE2=Bukka White - Little Woman's Bed
TTITLE3=Bukka White - Tip and Eight Boogie
TTITLE4=Bukka White - talking
TTITLE5=Bukka White - Hambone Blues
TTITLE6=Bukka White - I'm Drifting
TTITLE7=Bukka White - Bukka's Goodtime Swing
TTITLE8=Bukka White - Please, Ma'am
TTITLE9=Bukka White - talking 2
TTITLE10=Furry Lewis - Going Away Blues
TTITLE11=Furry Lewis - John Henry
TTITLE12=Furry Lewis - talking
TTITLE13=Furry Lewis - Skinny Woman
TTITLE14=Furry Lewis - talking 2
TTITLE15=Furry Lewis - Old Dog Blue
TTITLE16=Furry Lewis - talking 3
TTITLE17=Furry Lewis - Let Me Call You Sweetheart
TTITLE18=Furry Lewis - talking 4
TTITLE19=Furry Lewis - Farewell to Thee
TTITLE20=Furry Lewis - Mama's Fish
TTITLE21=Furry Lewis - When I Lay My Burden Down
TTITLE22=Furry Lewis - Kassie Jones and a message from Furry
EXTD=Arcola Records, A-CD 1001
EXTT0=
EXTT1=
EXTT2=
EXTT3=
EXTT4=
EXTT5=
EXTT6=
EXTT7=
EXTT8=
EXTT9=
EXTT10=
EXTT11=
EXTT12=
EXTT13=
EXTT14=
EXTT15=
EXTT16=
EXTT17=
EXTT18=
EXTT19=
EXTT20=
EXTT21=
EXTT22=
PLAYORDER=
